<mxfile host="app.diagrams.net" modified="2024-03-21T18:47:51.109Z" agent="Mozilla/5.0 (Windows NT 10.0; Win64; x64) AppleWebKit/537.36 (KHTML, like Gecko) Chrome/122.0.0.0 Safari/537.36" etag="rMzeZh2jUzoWe31rQUlK" version="24.0.7" type="github">
  <diagram name="Page-1" id="VQm1BPkk2zkZOpTPwfwk">
    <mxGraphModel dx="781" dy="436" grid="1" gridSize="10" guides="1" tooltips="1" connect="1" arrows="1" fold="1" page="1" pageScale="1" pageWidth="850" pageHeight="1100" math="0" shadow="0">
      <root>
        <mxCell id="0" />
        <mxCell id="1" parent="0" />
        <mxCell id="M7zPYKwd5eIDmQGV7PPg-18" style="edgeStyle=orthogonalEdgeStyle;rounded=0;orthogonalLoop=1;jettySize=auto;html=1;exitX=1;exitY=0.5;exitDx=0;exitDy=0;entryX=0;entryY=0.5;entryDx=0;entryDy=0;" edge="1" parent="1" source="M7zPYKwd5eIDmQGV7PPg-1" target="M7zPYKwd5eIDmQGV7PPg-3">
          <mxGeometry relative="1" as="geometry" />
        </mxCell>
        <mxCell id="M7zPYKwd5eIDmQGV7PPg-27" style="edgeStyle=orthogonalEdgeStyle;rounded=0;orthogonalLoop=1;jettySize=auto;html=1;exitX=0.25;exitY=1;exitDx=0;exitDy=0;entryX=0;entryY=0.75;entryDx=0;entryDy=0;" edge="1" parent="1" source="M7zPYKwd5eIDmQGV7PPg-1" target="M7zPYKwd5eIDmQGV7PPg-20">
          <mxGeometry relative="1" as="geometry" />
        </mxCell>
        <mxCell id="M7zPYKwd5eIDmQGV7PPg-35" style="edgeStyle=orthogonalEdgeStyle;rounded=0;orthogonalLoop=1;jettySize=auto;html=1;exitX=0.25;exitY=0;exitDx=0;exitDy=0;entryX=0;entryY=1;entryDx=0;entryDy=0;" edge="1" parent="1" source="M7zPYKwd5eIDmQGV7PPg-1" target="M7zPYKwd5eIDmQGV7PPg-6">
          <mxGeometry relative="1" as="geometry" />
        </mxCell>
        <mxCell id="M7zPYKwd5eIDmQGV7PPg-1" value="Resident Clean&lt;div&gt;100101&lt;/div&gt;" style="rounded=0;whiteSpace=wrap;html=1;" vertex="1" parent="1">
          <mxGeometry x="120" y="170" width="120" height="60" as="geometry" />
        </mxCell>
        <mxCell id="M7zPYKwd5eIDmQGV7PPg-31" style="edgeStyle=orthogonalEdgeStyle;rounded=0;orthogonalLoop=1;jettySize=auto;html=1;exitX=0.25;exitY=0;exitDx=0;exitDy=0;entryX=0;entryY=1;entryDx=0;entryDy=0;" edge="1" parent="1" source="M7zPYKwd5eIDmQGV7PPg-3" target="M7zPYKwd5eIDmQGV7PPg-5">
          <mxGeometry relative="1" as="geometry" />
        </mxCell>
        <mxCell id="M7zPYKwd5eIDmQGV7PPg-3" value="Resident Dirty&lt;div&gt;111101&lt;/div&gt;" style="rounded=0;whiteSpace=wrap;html=1;" vertex="1" parent="1">
          <mxGeometry x="460" y="170" width="120" height="60" as="geometry" />
        </mxCell>
        <mxCell id="M7zPYKwd5eIDmQGV7PPg-11" style="edgeStyle=orthogonalEdgeStyle;rounded=0;orthogonalLoop=1;jettySize=auto;html=1;exitX=1;exitY=1;exitDx=0;exitDy=0;entryX=0.75;entryY=0;entryDx=0;entryDy=0;" edge="1" parent="1" source="M7zPYKwd5eIDmQGV7PPg-5" target="M7zPYKwd5eIDmQGV7PPg-3">
          <mxGeometry relative="1" as="geometry" />
        </mxCell>
        <mxCell id="M7zPYKwd5eIDmQGV7PPg-5" value="001001" style="ellipse;whiteSpace=wrap;html=1;" vertex="1" parent="1">
          <mxGeometry x="482.5" y="50" width="75" height="50" as="geometry" />
        </mxCell>
        <mxCell id="M7zPYKwd5eIDmQGV7PPg-13" style="edgeStyle=orthogonalEdgeStyle;rounded=0;orthogonalLoop=1;jettySize=auto;html=1;exitX=1;exitY=1;exitDx=0;exitDy=0;entryX=0.75;entryY=0;entryDx=0;entryDy=0;" edge="1" parent="1" source="M7zPYKwd5eIDmQGV7PPg-6" target="M7zPYKwd5eIDmQGV7PPg-1">
          <mxGeometry relative="1" as="geometry" />
        </mxCell>
        <mxCell id="M7zPYKwd5eIDmQGV7PPg-6" value="000001" style="ellipse;whiteSpace=wrap;html=1;" vertex="1" parent="1">
          <mxGeometry x="142.5" y="50" width="75" height="50" as="geometry" />
        </mxCell>
        <mxCell id="M7zPYKwd5eIDmQGV7PPg-16" value="Ref&lt;div&gt;Cleared&lt;/div&gt;" style="text;html=1;align=center;verticalAlign=middle;resizable=0;points=[];autosize=1;strokeColor=none;fillColor=none;" vertex="1" parent="1">
          <mxGeometry x="80" y="90" width="70" height="40" as="geometry" />
        </mxCell>
        <mxCell id="M7zPYKwd5eIDmQGV7PPg-17" value="Read" style="text;html=1;align=center;verticalAlign=middle;resizable=0;points=[];autosize=1;strokeColor=none;fillColor=none;" vertex="1" parent="1">
          <mxGeometry x="210" y="95" width="50" height="30" as="geometry" />
        </mxCell>
        <mxCell id="M7zPYKwd5eIDmQGV7PPg-19" value="Write" style="text;html=1;align=center;verticalAlign=middle;resizable=0;points=[];autosize=1;strokeColor=none;fillColor=none;" vertex="1" parent="1">
          <mxGeometry x="325" y="170" width="50" height="30" as="geometry" />
        </mxCell>
        <mxCell id="M7zPYKwd5eIDmQGV7PPg-21" style="edgeStyle=orthogonalEdgeStyle;rounded=0;orthogonalLoop=1;jettySize=auto;html=1;exitX=1;exitY=0.5;exitDx=0;exitDy=0;entryX=0.5;entryY=1;entryDx=0;entryDy=0;" edge="1" parent="1" source="M7zPYKwd5eIDmQGV7PPg-20" target="M7zPYKwd5eIDmQGV7PPg-3">
          <mxGeometry relative="1" as="geometry" />
        </mxCell>
        <mxCell id="M7zPYKwd5eIDmQGV7PPg-28" style="edgeStyle=orthogonalEdgeStyle;rounded=0;orthogonalLoop=1;jettySize=auto;html=1;exitX=0;exitY=0.25;exitDx=0;exitDy=0;entryX=0.75;entryY=1;entryDx=0;entryDy=0;" edge="1" parent="1" source="M7zPYKwd5eIDmQGV7PPg-20" target="M7zPYKwd5eIDmQGV7PPg-1">
          <mxGeometry relative="1" as="geometry" />
        </mxCell>
        <mxCell id="M7zPYKwd5eIDmQGV7PPg-20" value="&lt;div&gt;Non-Resident&lt;/div&gt;&lt;div&gt;000000&lt;/div&gt;" style="rounded=0;whiteSpace=wrap;html=1;" vertex="1" parent="1">
          <mxGeometry x="290" y="310" width="120" height="60" as="geometry" />
        </mxCell>
        <mxCell id="M7zPYKwd5eIDmQGV7PPg-22" value="Write" style="text;html=1;align=center;verticalAlign=middle;resizable=0;points=[];autosize=1;strokeColor=none;fillColor=none;" vertex="1" parent="1">
          <mxGeometry x="520" y="280" width="50" height="30" as="geometry" />
        </mxCell>
        <mxCell id="M7zPYKwd5eIDmQGV7PPg-24" value="" style="endArrow=classic;html=1;rounded=0;" edge="1" parent="1">
          <mxGeometry width="50" height="50" relative="1" as="geometry">
            <mxPoint x="40" y="200" as="sourcePoint" />
            <mxPoint x="120" y="200" as="targetPoint" />
          </mxGeometry>
        </mxCell>
        <mxCell id="M7zPYKwd5eIDmQGV7PPg-25" value="vm_map" style="text;html=1;align=center;verticalAlign=middle;resizable=0;points=[];autosize=1;strokeColor=none;fillColor=none;" vertex="1" parent="1">
          <mxGeometry y="170" width="70" height="30" as="geometry" />
        </mxCell>
        <mxCell id="M7zPYKwd5eIDmQGV7PPg-26" value="fork" style="text;html=1;align=center;verticalAlign=middle;resizable=0;points=[];autosize=1;strokeColor=none;fillColor=none;" vertex="1" parent="1">
          <mxGeometry x="10" y="200" width="40" height="30" as="geometry" />
        </mxCell>
        <mxCell id="M7zPYKwd5eIDmQGV7PPg-29" value="evict" style="text;html=1;align=center;verticalAlign=middle;resizable=0;points=[];autosize=1;strokeColor=none;fillColor=none;" vertex="1" parent="1">
          <mxGeometry x="100" y="290" width="50" height="30" as="geometry" />
        </mxCell>
        <mxCell id="M7zPYKwd5eIDmQGV7PPg-30" value="read" style="text;html=1;align=center;verticalAlign=middle;resizable=0;points=[];autosize=1;strokeColor=none;fillColor=none;" vertex="1" parent="1">
          <mxGeometry x="217.5" y="290" width="50" height="30" as="geometry" />
        </mxCell>
        <mxCell id="M7zPYKwd5eIDmQGV7PPg-32" value="ref&lt;div&gt;cleared&lt;/div&gt;" style="text;html=1;align=center;verticalAlign=middle;resizable=0;points=[];autosize=1;strokeColor=none;fillColor=none;" vertex="1" parent="1">
          <mxGeometry x="430" y="100" width="60" height="40" as="geometry" />
        </mxCell>
        <mxCell id="M7zPYKwd5eIDmQGV7PPg-33" value="read/write" style="text;html=1;align=center;verticalAlign=middle;resizable=0;points=[];autosize=1;strokeColor=none;fillColor=none;" vertex="1" parent="1">
          <mxGeometry x="550" y="105" width="80" height="30" as="geometry" />
        </mxCell>
      </root>
    </mxGraphModel>
  </diagram>
</mxfile>
